PathFileType	4	(X/Y/Z)	Walk1.trc
DataRate	CameraRate	NumFrames	NumMarkers	Units	OrigDataRate	OrigDataStartFrame	OrigNumFrames
200.000000	200.000000	6	61	mm	200.000000	845	925
Frame#	Times		RCAR		LTH3		RTH2		LBHD		RWRU		LWRU		LUA1		RTH3		LElbow		RFA1		LFA1		LCAR		LElbowM		C7		RTB3		RToe		RPSI		RTB2		RTB1		RMT5		LTH2		RElbow		RLFC		RBHD		RMT1		RTB4		RMMAL		LWRR		T10		RLMAL		LPSI		RBack		RCAL		LLFC		STRN		LASI		LTB3		RUA1		LACR1		RASI		RElbowM		LMMAL		RFHD		LTB1		LTB2		LMFC		LCAL		RTH1		LTB4		RMFC		LFHD		LLMAL		LMT5		RACR1		RTH4		LTH4		CLAV		RWRR		LToe		LMT1		LTH1
			X1	Y1	Z1	X2	Y2	Z2	X3	Y3	Z3	X4	Y4	Z4	X5	Y5	Z5	X6	Y6	Z6	X7	Y7	Z7	X8	Y8	Z8	X9	Y9	Z9	X10	Y10	Z10	X11	Y11	Z11	X12	Y12	Z12	X13	Y13	Z13	X14	Y14	Z14	X15	Y15	Z15	X16	Y16	Z16	X17	Y17	Z17	X18	Y18	Z18	X19	Y19	Z19	X20	Y20	Z20	X21	Y21	Z21	X22	Y22	Z22	X23	Y23	Z23	X24	Y24	Z24	X25	Y25	Z25	X26	Y26	Z26	X27	Y27	Z27	X28	Y28	Z28	X29	Y29	Z29	X30	Y30	Z30	X31	Y31	Z31	X32	Y32	Z32	X33	Y33	Z33	X34	Y34	Z34	X35	Y35	Z35	X36	Y36	Z36	X37	Y37	Z37	X38	Y38	Z38	X39	Y39	Z39	X40	Y40	Z40	X41	Y41	Z41	X42	Y42	Z42	X43	Y43	Z43	X44	Y44	Z44	X45	Y45	Z45	X46	Y46	Z46	X47	Y47	Z47	X48	Y48	Z48	X49	Y49	Z49	X50	Y50	Z50	X51	Y51	Z51	X52	Y52	Z52	X53	Y53	Z53	X54	Y54	Z54	X55	Y55	Z55	X56	Y56	Z56	X57	Y57	Z57	X58	Y58	Z58	X59	Y59	Z59	X60	Y60	Z60	X61	Y61	Z61

845	4.225	886.61	888.92	237.38	750.21	615.8	-169.27	701.74	682.26	162.16	629.15	1625.3	-120.58	819.09	889.57	247.28	572.6	830.94	-270.9	607.34	1266.1	-286.56	618.63	597.22	183.2	561.99	1114.4	-294.44	742.08	999.99	271.06	561.07	963.62	-291.07	633.61	777.43	-261.58	524.76	1116.8	-226.35	603.75	1502.7	-40.434	418.51	224.96	100.97	418.8	33.199	124.41	495.92	1011.7	34.636	459.95	302.42	170.17	552.06	351.04	119.17	332.27	58.492	169.3	788.89	726.84	-164.12	665.76	1137.4	271.34	582.11	486.19	180.64	640.66	1640.2	20.458	380.01	42.792	98.071	486.37	287.77	107.89	346.14	157.83	61.762	633.96	836.31	-215.09	493.93	1282.3	-21.784	298.48	163.9	137.17	495.78	1007	-43.117	530.63	1423.8	103.09	240.55	171.01	80.681	770.39	517.48	-160.09	774.47	1237.1	-31.154	708.4	1024	-151.28	812.4	199.07	-82.336	677.9	1293.5	223.61	668.67	1442.5	-205.43	719.93	1039.9	129.81	625.87	1115.2	201.3	795	90.593	-44.777	815.61	1673.7	-18.72	826.27	384.91	-82.135	798.65	297.19	-153.55	784.46	526.34	-31.172	708.78	27.94	-85.034	642.81	785.78	188.09	819.71	295.07	-81.156	611.11	487.02	52.319	809.47	1666.9	-94.895	768.71	69.253	-126.33	867.76	22.116	-159.46	684.68	1458.3	118.7	633.72	690.11	189.2	724.04	703.67	-185.14	734.69	1410.9	-38.285	857.61	924.32	188.08	966.99	32.758	-89.595	914.62	39.523	-74.438	699.94	792.86	-197.66
846	4.23	889.37	888.78	237.26	753.6	615.8	-169.85	709.82	683.2	162.48	634.28	1626.1	-121.71	821.94	889.78	247.01	581.1	831.55	-272.44	613.83	1266.8	-287.69	627.7	597.18	183.52	569.1	1115	-295.95	745.09	1000.5	270.3	568.96	964.14	-292.6	642.33	778.36	-262.76	531.55	1117.2	-228.04	608.67	1503.4	-41.446	426.42	227.26	101.39	422.29	34.269	124.87	501.19	1012.2	33.441	468.42	304.41	170.44	560.67	350.91	120.69	336.88	61.561	169.32	793.26	726.52	-164.99	669.26	1138.2	270.21	592.3	486.33	181.14	645.68	1641.2	19.293	384.24	44.368	98.394	495.06	289.3	108.47	353.39	160.81	61.997	642.39	837.41	-216.46	499.11	1282.9	-22.917	305.34	167.81	137.08	501.26	1007.8	-44.335	535.31	1424.5	101.96	247.98	176.07	80.179	773.44	517.46	-160.57	779.67	1238.1	-31.688	714.07	1025	-152.03	813.29	198.81	-82.427	681.96	1294.3	222.7	674.17	1443.3	-206.21	724.78	1040.5	129.26	629.65	1116.3	199.88	795.06	90.532	-44.732	820.72	1674.4	-19.801	828.54	384.56	-82.469	800.27	296.97	-153.75	787.2	526.18	-31.579	708.74	27.926	-85.065	649.49	786.08	187.8	821.33	294.77	-81.367	622.32	486.81	52.833	814.63	1667.5	-95.966	768.75	69.267	-126.33	867.76	22.171	-159.47	689.27	1459.2	117.91	641.61	690.29	189.28	728.15	703.87	-185.78	739.72	1411.8	-38.977	860.73	924.39	187.89	967.05	32.647	-89.547	914.61	39.619	-74.424	704.77	793.24	-198.43
847	4.235	892.06	888.62	237.19	756.84	615.79	-170.42	717.85	684.22	162.83	639.37	1626.9	-122.8	824.72	889.97	246.79	589.68	832.19	-273.95	620.31	1267.6	-288.82	636.72	597.23	183.81	576.21	1115.6	-297.48	748.05	1001.1	269.58	576.89	964.7	-294.15	651.17	779.35	-263.98	538.36	1117.5	-229.73	613.58	1504.1	-42.428	434.54	229.56	101.76	426.47	35.507	125.37	506.43	1012.7	32.241	477.09	306.39	170.69	569.24	350.75	122.27	342.04	64.688	169.39	797.5	726.19	-165.81	672.72	1139	269.11	602.48	486.56	181.58	650.67	1642.2	18.176	389.08	46.137	98.765	503.92	290.87	108.98	360.87	163.73	62.19	651.01	838.6	-217.89	504.26	1283.5	-24.051	312.51	171.6	136.98	506.69	1008.6	-45.555	539.94	1425.3	100.83	255.66	180.87	79.726	776.32	517.42	-161.04	784.84	1239	-32.182	719.71	1025.9	-152.71	814.13	198.56	-82.554	685.95	1295.1	221.84	679.66	1444.2	-206.95	729.59	1041.1	128.72	633.4	1117.4	198.5	795.11	90.476	-44.703	825.79	1675.2	-20.826	830.68	384.21	-82.839	801.74	296.74	-153.96	789.68	525.98	-31.983	708.69	27.911	-85.091	656.12	786.44	187.52	822.85	294.47	-81.612	633.49	486.77	53.313	819.75	1668.1	-96.982	768.76	69.278	-126.34	867.76	22.214	-159.47	693.81	1460.2	117.17	649.44	690.54	189.36	732.13	704.06	-186.41	744.71	1412.7	-39.632	863.77	924.44	187.74	967.08	32.577	-89.515	914.59	39.712	-74.416	709.5	793.62	-199.18
848	4.24	894.68	888.43	237.17	760	615.81	-171	725.81	685.33	163.22	644.44	1627.7	-123.83	827.43	890.16	246.6	598.35	832.85	-275.46	626.79	1268.3	-289.93	645.67	597.39	184.08	583.34	1116.2	-299	750.97	1001.6	268.91	584.87	965.27	-295.7	660.13	780.41	-265.24	545.19	1117.9	-231.44	618.47	1504.8	-43.379	442.87	231.85	102.06	431.37	36.902	125.9	511.65	1013.3	31.042	485.94	308.35	170.9	577.77	350.56	123.92	347.77	67.841	169.5	801.63	725.87	-166.56	676.15	1139.8	268.04	612.64	486.89	181.98	655.62	1643.3	17.109	394.55	48.074	99.171	512.95	292.49	109.42	368.61	166.59	62.337	659.81	839.89	-219.4	509.39	1284.1	-25.185	320	175.25	136.89	512.06	1009.4	-46.767	544.53	1426	99.694	263.59	185.36	79.322	779.07	517.37	-161.51	789.98	1240	-32.639	725.32	1026.9	-153.32	814.93	198.31	-82.715	689.87	1296	221.03	685.12	1445	-207.66	734.37	1041.7	128.19	637.13	1118.4	197.16	795.15	90.427	-44.69	830.83	1675.9	-21.792	832.71	383.85	-83.242	803.08	296.51	-154.19	791.94	525.76	-32.388	708.63	27.896	-85.114	662.68	786.87	187.28	824.3	294.17	-81.89	644.61	486.9	53.754	824.84	1668.8	-97.941	768.75	69.288	-126.36	867.76	22.243	-159.48	698.32	1461.2	116.48	657.19	690.89	189.44	736.03	704.27	-187.05	749.66	1413.6	-40.25	866.76	924.45	187.64	967.1	32.537	-89.498	914.56	39.799	-74.412	714.14	794.01	-199.91
849	4.245	897.24	888.21	237.2	763.1	615.85	-171.59	733.71	686.52	163.63	649.47	1628.5	-124.81	830.06	890.33	246.46	607.1	833.53	-276.95	633.25	1269.1	-291.02	654.54	597.66	184.32	590.49	1116.8	-300.52	753.84	1002.1	268.27	592.89	965.87	-297.25	669.22	781.53	-266.54	552.03	1118.2	-233.16	623.35	1505.6	-44.297	451.39	234.1	102.31	436.98	38.433	126.44	516.84	1013.8	29.852	494.96	310.28	171.07	586.26	350.36	125.61	354.08	70.984	169.64	805.68	725.59	-167.24	679.54	1140.6	267	622.75	487.33	182.33	660.54	1644.4	16.093	400.64	50.143	99.598	522.15	294.15	109.78	376.6	169.36	62.442	668.81	841.28	-220.98	514.48	1284.7	-26.315	327.79	178.73	136.8	517.37	1010.3	-47.966	549.08	1426.8	98.564	271.75	189.53	78.963	781.7	517.31	-161.96	795.1	1240.9	-33.061	730.91	1027.8	-153.86	815.68	198.07	-82.907	693.74	1296.8	220.29	690.56	1445.9	-208.34	739.12	1042.4	127.69	640.84	1119.5	195.86	795.18	90.387	-44.692	835.82	1676.7	-22.698	834.66	383.5	-83.675	804.29	296.29	-154.43	794.03	525.53	-32.796	708.57	27.882	-85.133	669.19	787.36	187.05	825.68	293.87	-82.197	655.64	487.21	54.154	829.89	1669.4	-98.841	768.72	69.299	-126.39	867.75	22.26	-159.5	702.79	1462.2	115.84	664.87	691.33	189.53	739.85	704.49	-187.68	754.59	1414.6	-40.833	869.68	924.44	187.59	967.1	32.519	-89.494	914.51	39.877	-74.414	718.71	794.41	-200.63
850	4.25	899.74	887.98	237.29	766.16	615.92	-172.17	741.54	687.81	164.05	654.47	1629.4	-125.74	832.61	890.49	246.37	615.92	834.22	-278.42	639.71	1269.9	-292.1	663.32	598.04	184.52	597.65	1117.4	-302.04	756.66	1002.6	267.68	600.96	966.5	-298.8	678.41	782.71	-267.87	558.89	1118.6	-234.87	628.22	1506.3	-45.182	460.12	236.31	102.49	443.29	40.07	126.98	522	1014.4	28.677	504.14	312.18	171.21	594.73	350.18	127.31	360.96	74.076	169.81	809.64	725.35	-167.83	682.9	1141.4	265.98	632.81	487.88	182.62	665.42	1645.4	15.129	407.36	52.305	100.03	531.51	295.84	110.08	384.83	172.01	62.509	677.99	842.75	-222.63	519.55	1285.4	-27.44	335.89	182.01	136.7	522.63	1011.2	-49.143	553.6	1427.5	97.438	280.13	193.35	78.647	784.21	517.25	-162.41	800.19	1241.9	-33.449	736.47	1028.8	-154.34	816.4	197.84	-83.124	697.55	1297.6	219.6	695.98	1446.7	-208.98	743.84	1043.1	127.19	644.54	1120.5	194.62	795.21	90.357	-44.708	840.78	1677.5	-23.542	836.52	383.15	-84.133	805.4	296.07	-154.7	795.99	525.32	-33.206	708.52	27.869	-85.15	675.63	787.93	186.84	827.01	293.58	-82.53	666.58	487.68	54.511	834.92	1670.1	-99.68	768.68	69.313	-126.42	867.73	22.266	-159.52	707.24	1463.1	115.25	672.48	691.86	189.6	743.63	704.75	-188.3	759.48	1415.5	-41.381	872.53	924.39	187.6	967.09	32.515	-89.501	914.46	39.945	-74.42	723.22	794.84	-201.33
